<?xml version="1.0" standalone="no"?>
<!DOCTYPE svg PUBLIC "-//W3C//DTD SVG 20010904//EN"
 "http://www.w3.org/TR/2001/REC-SVG-20010904/DTD/svg10.dtd">
<svg version="1.0" xmlns="http://www.w3.org/2000/svg"
 width="224.000000pt" height="221.000000pt" viewBox="0 0 224.000000 221.000000"
 preserveAspectRatio="xMidYMid meet">
<metadata>
Created by potrace 1.16, written by Peter Selinger 2001-2019
</metadata>
<g transform="translate(0.000000,221.000000) scale(0.100000,-0.100000)"
fill="#000000" stroke="none">
<path d="M983 2160 c-407 -52 -759 -316 -908 -681 -111 -274 -98 -606 35 -869
102 -202 292 -391 495 -493 310 -155 720 -155 1030 0 317 158 546 470 595 812
18 123 8 313 -24 428 -110 400 -448 709 -863 789 -97 18 -270 25 -360 14z
m322 -36 c153 -34 270 -77 375 -138 86 -50 126 -82 225 -181 100 -100 129
-136 172 -215 264 -484 125 -1060 -332 -1370 -371 -251 -871 -254 -1240 -7
-202 136 -359 341 -428 562 -79 252 -57 526 59 760 133 269 376 469 682 561
145 44 362 56 487 28z"/>
<path d="M1025 2001 c-349 -56 -607 -323 -646 -669 -14 -122 -14 -122 -39
-122 -20 0 -20 -5 -20 -366 l0 -365 35 -15 c19 -7 43 -14 53 -14 11 0 25 -13
34 -34 18 -38 102 -86 150 -86 l28 0 0 349 c0 192 3 356 6 365 5 13 -1 16 -25
16 -40 0 -88 -20 -127 -53 -18 -15 -34 -27 -37 -27 -2 0 -5 45 -6 99 -2 95 -1
100 25 126 17 17 24 33 21 47 -3 11 1 57 10 102 8 44 18 97 21 116 10 72 147
243 246 308 128 84 197 108 348 119 203 14 407 -81 544 -254 27 -34 59 -81 71
-105 29 -57 62 -181 67 -250 4 -53 19 -98 34 -98 4 0 8 -47 9 -105 0 -58 -1
-105 -4 -105 -3 0 -22 13 -42 28 -44 34 -84 52 -116 52 l-25 0 0 -365 c0 -201
3 -365 7 -365 7 0 59 16 105 33 15 5 45 28 66 51 23 25 45 40 55 38 10 -2 29
4 42 12 l25 16 0 365 0 364 -22 3 c-21 3 -24 10 -31 83 -15 160 -69 301 -162
423 -89 117 -242 219 -395 261 -84 24 -230 34 -305 22z"/>
<path d="M1159 1687 c-21 -14 -47 -47 -68 -89 -29 -56 -34 -79 -38 -154 -2
-55 1 -114 10 -153 l13 -65 -35 -30 c-181 -157 -232 -230 -239 -350 -9 -144
63 -253 204 -309 62 -25 81 -28 157 -25 48 2 87 2 87 2 0 -1 9 -37 20 -80 35
-138 24 -191 -45 -234 -36 -22 -122 -27 -156 -9 -21 11 -17 29 8 29 8 0 28 9
44 21 23 16 29 28 29 59 0 30 -6 43 -31 64 -17 14 -43 26 -57 26 -43 0 -96
-42 -111 -88 -13 -37 -12 -43 8 -76 16 -25 32 -37 56 -42 19 -3 39 -12 46 -20
15 -19 119 -18 165 1 102 42 123 114 81 276 l-24 97 35 16 c86 42 141 111 142
179 0 47 -55 142 -106 181 -43 33 -126 58 -141 43 -11 -11 -43 14 -43 33 0 11
-5 40 -12 64 -12 44 -11 45 28 90 61 69 84 103 84 120 0 9 4 16 9 16 20 0 36
69 36 160 0 86 -3 102 -32 162 -30 63 -63 108 -82 108 -4 0 -23 -10 -42 -23z
m97 -131 c48 -36 6 -161 -87 -252 -60 -59 -71 -52 -73 43 -1 85 23 151 70 193
38 33 60 37 90 16z m-126 -533 c6 -27 13 -53 15 -60 2 -6 -8 -16 -23 -23 -54
-23 -111 -85 -122 -135 -11 -48 4 -97 41 -140 30 -34 94 -64 107 -50 4 4 0 10
-8 13 -8 3 -30 20 -47 38 -47 46 -45 84 6 135 49 50 67 50 80 1 11 -38 47
-187 56 -229 4 -19 0 -23 -31 -29 -85 -16 -208 18 -268 74 -87 82 -85 199 5
311 39 49 146 141 164 141 7 0 18 -21 25 -47z m159 -187 c15 -8 42 -31 60 -51
26 -30 31 -44 31 -87 0 -47 -3 -54 -45 -96 -26 -26 -49 -41 -54 -36 -5 5 -20
61 -35 124 -15 63 -29 125 -33 138 -4 19 -1 22 21 22 15 0 40 -7 55 -14z"/>
<path d="M268 817 c-36 -29 -48 -62 -48 -128 0 -50 4 -68 15 -73 8 -3 15 -12
15 -20 0 -13 28 -36 44 -36 10 0 7 258 -3 264 -4 3 -15 0 -23 -7z"/>
<path d="M1956 813 c-8 -20 -7 -202 0 -231 6 -22 7 -22 33 -6 44 28 51 44 51
120 0 56 -4 77 -20 96 -24 31 -57 42 -64 21z"/>
</g>
</svg>
